<svg xmlns="http://www.w3.org/2000/svg">
	<symbol id="face-book" viewBox="0 0 24 24">
		<path fill="none" stroke="currentColor" stroke-linecap="round" stroke-linejoin="round" stroke-width="1.5" d="M17 2h-3a5 5 0 0 0-5 5v3H6v4h3v8h4v-8h3l1-4h-4V7a1 1 0 0 1 1-1h3z"/>
	</symbol>
	<symbol id="instagram" viewBox="0 0 24 24">
		<path fill="currentColor" d="M7.8 2h8.4C19.4 2 22 4.6 22 7.8v8.4a5.8 5.8 0 0 1-5.8 5.8H7.8C4.6 22 2 19.4 2 16.2V7.8A5.8 5.8 0 0 1 7.8 2m-.2 2A3.6 3.6 0 0 0 4 7.6v8.8C4 18.39 5.61 20 7.6 20h8.8a3.6 3.6 0 0 0 3.6-3.6V7.6C20 5.61 18.39 4 16.4 4zm9.65 1.5a1.25 1.25 0 0 1 1.25 1.25A1.25 1.25 0 0 1 17.25 8A1.25 1.25 0 0 1 16 6.75a1.25 1.25 0 0 1 1.25-1.25M12 7a5 5 0 0 1 5 5a5 5 0 0 1-5 5a5 5 0 0 1-5-5a5 5 0 0 1 5-5m0 2a3 3 0 0 0-3 3a3 3 0 0 0 3 3a3 3 0 0 0 3-3a3 3 0 0 0-3-3"/>
	</symbol>
	<symbol id="twitter" viewBox="0 0 24 24">
		<path fill="none" stroke="currentColor" stroke-linecap="round" stroke-linejoin="round" stroke-width="1.5" d="M2 18.5C3.765 19.521 5.814 20 8 20c6.48 0 11.762-5.137 11.992-11.562L22 4.5l-3.354.5A4 4 0 0 0 16 4c-2.572 0-4.5 2.517-3.88 4.98c-3.552.23-6.771-1.959-8.633-4.875c-1.236 4.197-.09 9.251 3.013 12.366c0 1.176-3 1.878-4.5 2.029" color="currentColor"/>
	</symbol>
	<symbol id="linkedin" viewBox="0 0 24 24">
		<path fill="currentColor" d="M18.44 3.06H5.56a2.507 2.507 0 0 0-2.5 2.5v12.88a2.507 2.507 0 0 0 2.5 2.5h12.88a2.5 2.5 0 0 0 2.5-2.5V5.56a2.5 2.5 0 0 0-2.5-2.5m1.5 15.38a1.51 1.51 0 0 1-1.5 1.5H5.56a1.51 1.51 0 0 1-1.5-1.5V5.56a1.51 1.51 0 0 1 1.5-1.5h12.88a1.51 1.51 0 0 1 1.5 1.5Z"/><path fill="currentColor" d="M6.376 10.748a1 1 0 1 1 2 0v6.5a1 1 0 0 1-2 0Z"/><circle cx="7.376" cy="6.744" r="1" fill="currentColor"/><path fill="currentColor" d="M17.62 13.37v3.88a1 1 0 1 1-2 0v-3.88a1.615 1.615 0 1 0-3.23 0v3.88a1 1 0 0 1-2 0v-6.5a1.016 1.016 0 0 1 1-1a.94.94 0 0 1 .84.47a3.61 3.61 0 0 1 5.39 3.15"/>
	</symbol>
	<symbol id="email" viewBox="0 0 24 24">
		<path fill="currentColor" d="M4 20q-.825 0-1.412-.587T2 18V6q0-.825.588-1.412T4 4h16q.825 0 1.413.588T22 6v12q0 .825-.587 1.413T20 20zm8-7L4 8v10h16V8zm0-2l8-5H4zM4 8V6v12z"/>
	</symbol>
	<symbol id="phone" viewBox="0 0 24 24">
		<path fill="currentColor" fill-rule="evenodd" d="M5.733 2.043c1.217-1.21 3.221-.995 4.24.367l1.262 1.684c.83 1.108.756 2.656-.229 3.635l-.238.238a.65.65 0 0 0-.008.306c.063.408.404 1.272 1.832 2.692s2.298 1.76 2.712 1.824a.7.7 0 0 0 .315-.009l.408-.406c.876-.87 2.22-1.033 3.304-.444l1.91 1.04c1.637.888 2.05 3.112.71 4.445l-1.421 1.412c-.448.445-1.05.816-1.784.885c-1.81.169-6.027-.047-10.46-4.454c-4.137-4.114-4.931-7.702-5.032-9.47l.749-.042l-.749.042c-.05-.894.372-1.65.91-2.184zm3.04 1.266c-.507-.677-1.451-.731-1.983-.202l-1.57 1.56c-.33.328-.488.69-.468 1.036c.08 1.405.72 4.642 4.592 8.492c4.062 4.038 7.813 4.159 9.263 4.023c.296-.027.59-.181.865-.454l1.42-1.413c.578-.574.451-1.62-.367-2.064l-1.91-1.039c-.528-.286-1.146-.192-1.53.19l-.455.453l-.53-.532c.53.532.529.533.528.533l-.001.002l-.003.003l-.007.006l-.015.014a1 1 0 0 1-.136.106c-.08.053-.186.112-.319.161c-.27.101-.628.155-1.07.087c-.867-.133-2.016-.724-3.543-2.242c-1.526-1.518-2.122-2.66-2.256-3.526c-.069-.442-.014-.8.088-1.07a1.5 1.5 0 0 1 .238-.42l.032-.035l.014-.015l.006-.006l.003-.003l.002-.002l.53.53l-.53-.531l.288-.285c.428-.427.488-1.134.085-1.673z" clip-rule="evenodd"/>
	</symbol>
</svg>